<svg width="32" height="32" viewBox="0 0 32 32" fill="none" xmlns="http://www.w3.org/2000/svg">
<g clip-path="url(#clip0)">
<path d="M16.0137 31.9446C14.331 31.9446 12.648 31.9668 10.9657 31.9377C9.57049 31.9136 8.17277 31.8733 6.80378 31.5413C4.43017 30.9656 2.57642 29.6772 1.35024 27.5486C0.703169 26.4254 0.356775 25.1957 0.207666 23.9121C-0.00541394 22.0777 0.00871419 20.2336 0.00380409 18.3914C-0.00221773 16.124 -0.00115233 13.8564 0.0218232 11.5892C0.0357197 10.2176 0.0567498 8.84346 0.29211 7.48571C0.721837 5.00665 1.89141 2.98641 4.02721 1.59266C5.25025 0.794565 6.61664 0.333806 8.06318 0.222781C9.75415 0.0930131 11.4532 0.0370611 13.1496 0.016513C15.6194 -0.0133836 18.0901 0.00161099 20.5601 0.0274813C21.971 0.0422907 23.3853 0.0675594 24.778 0.345283C27.3423 0.856626 29.357 2.16481 30.6659 4.45921C31.3717 5.69668 31.7153 7.05443 31.8378 8.46633C32.0233 10.6047 31.9993 12.7494 32.0001 14.8927C32.0007 16.9055 32.0013 18.9187 31.9663 20.931C31.9422 22.3169 31.9157 23.7073 31.5886 25.0673C30.7856 28.4059 28.7423 30.5597 25.4234 31.4809C24.2328 31.8114 23.0071 31.8893 21.7786 31.9119C19.8572 31.9472 17.9356 31.9712 16.0142 32C16.014 31.9815 16.0138 31.9631 16.0137 31.9446ZM15.9586 29.1234C15.9587 29.1134 15.9589 29.1034 15.959 29.0933C16.7697 29.0933 17.5808 29.1129 18.3907 29.0893C20.1406 29.0382 21.8917 28.9963 23.6385 28.8884C24.5997 28.8291 25.5177 28.5255 26.341 28.0064C27.7586 27.1125 28.5262 25.7883 28.8348 24.169C29.0613 22.9812 29.0793 21.7767 29.0915 20.5762C29.1181 17.9464 29.1155 15.3162 29.1074 12.6863C29.1027 11.1378 29.1045 9.58699 28.8766 8.04935C28.4902 5.44233 26.8744 3.72656 24.2914 3.18583C23.068 2.92972 21.8211 2.9237 20.5805 2.90741C18.3343 2.87793 16.0877 2.88224 13.8413 2.88492C12.0049 2.8871 10.1663 2.86729 8.3381 3.08105C7.33167 3.19874 6.37017 3.48244 5.52104 4.05556C4.20101 4.94654 3.47487 6.2195 3.1723 7.76107C2.94519 8.91815 2.91642 10.092 2.91137 11.2614C2.89678 14.6622 2.9142 18.0632 2.9355 21.464C2.94162 22.4425 2.99378 23.4214 3.20959 24.3827C3.65965 26.3875 4.78944 27.8132 6.7519 28.5245C7.76588 28.892 8.82637 28.9944 9.89312 29.0188C11.9147 29.0651 13.9367 29.0897 15.9586 29.1234Z" fill="#0EDB69"/>
<path d="M15.9941 24.1939C11.4018 24.1582 7.74536 20.4804 7.78543 15.9373C7.82577 11.3676 11.5171 7.7475 16.0929 7.78198C20.5812 7.81577 24.286 11.541 24.2191 16.1525C24.1551 20.562 20.4313 24.2284 15.9941 24.1939ZM21.3272 16.0078C21.3621 13.1511 19.0592 10.7462 16.163 10.6615C13.1094 10.572 10.7264 13.0181 10.6653 15.8625C10.6016 18.8282 12.975 21.2839 15.891 21.3102C18.9304 21.3376 21.3127 19.0025 21.3272 16.0078Z" fill="#0EDB69"/>
</g>
<defs>
<clipPath id="clip0">
<rect width="32" height="32" fill="white"/>
</clipPath>
</defs>
</svg>
