<svg width="544" height="404" viewBox="0 0 544 404" fill="none" xmlns="http://www.w3.org/2000/svg">
<path d="M529.381 291.135C525.538 289.235 521.359 288.006 517.312 286.527C512.319 284.701 507.223 283.132 502.331 281.071C499.237 279.768 497.155 277.338 497.223 273.579C497.294 269.747 499.183 267.021 502.462 265.487C504.651 264.464 507.144 263.871 509.558 263.594C516.36 262.814 522.443 265.169 528.074 268.678C530.186 269.993 531.139 269.585 532.364 267.614C534.935 263.478 537.765 259.504 540.476 255.456C542.475 252.472 542.467 252.465 539.549 250.335C539.253 250.118 538.948 249.912 538.643 249.708C529.133 243.381 518.563 242.575 507.657 243.974C498.033 245.208 489.703 249.154 483.242 256.589C479.622 260.753 477.542 265.693 476.173 271.934C473.42 265.92 470.475 261.062 465.814 257.445C461.191 253.858 455.833 252.006 450.261 250.832C454.634 248.362 458.683 245.92 462.876 243.756C466.7 241.785 468.464 238.724 468.915 234.564C469.696 227.351 470.503 220.136 471.561 212.959C472.44 206.996 470.525 202.339 465.959 198.569C465.25 197.984 464.914 196.969 464.298 196.245C463.445 195.241 462.585 194.202 461.553 193.405C460.52 192.608 459.099 192.279 458.149 191.415C454.758 188.329 451.47 185.128 448.201 181.913C447.443 181.167 446.852 180.228 446.288 179.313C444.231 175.978 442.222 172.614 440.185 169.267C440.095 169.121 439.904 169.035 439.758 168.925C437.481 167.214 435.828 165.24 436.578 162.088C436.682 161.65 436.379 161.03 436.102 160.598C432.531 155.022 427.321 150.47 425.594 143.735C425.485 143.314 425.076 142.98 424.866 142.575C423.881 140.686 422.917 138.786 421.943 136.891C421.483 135.995 421.093 135.056 420.547 134.217C415.14 125.899 407.234 122.19 397.542 121.736C396.192 121.673 394.735 121.585 393.533 121.046C388.589 118.828 383.782 116.297 378.809 114.147C375.323 112.64 373.367 110.054 371.946 106.697C371.087 104.666 369.745 102.838 368.611 100.923C368.601 100.922 368.591 100.923 368.581 100.922C372.026 117.405 375.469 133.887 379.009 150.827C378.07 150.457 377.69 150.427 377.617 150.262C375.246 144.798 372.697 139.398 370.658 133.813C369.78 131.407 369.723 128.612 369.723 125.994C369.722 119.678 364.797 115.786 359.246 118.58C356.954 119.732 355.707 123.015 354.119 125.418C353.982 125.625 354.776 126.594 355.281 127.05C356.831 128.456 358.31 130.019 360.079 131.091C362.691 132.671 361.6 134.794 361.31 137.001C351.676 124.44 342.533 111.558 330.598 101.033C330.76 100.821 330.921 100.61 331.083 100.398C331.662 100.656 332.27 100.864 332.814 101.179C338.782 104.631 344.735 108.105 350.703 111.556C351.656 112.108 352.614 112.714 353.651 113.046C356.197 113.863 359.128 116.323 361.37 114.323C364.417 111.606 367.445 108.357 367.321 103.581C367.297 102.649 366.124 100.766 368.582 100.923C368.578 100.899 368.572 100.875 368.567 100.851L368.645 100.926C366.664 97.8761 367.085 95.0461 368.871 91.9413C371.283 87.7469 374.238 83.496 375.177 78.9038C376.843 70.7655 377.335 62.3662 377.944 54.0485C378.118 51.6713 378.599 48.5022 375.039 47.378C374.728 47.2791 374.619 46.2435 374.577 45.6319C374.197 40.0109 373.691 34.3911 373.535 28.7632C373.286 19.8282 368.288 13.6084 362.055 8.09313C360.363 6.59534 358.306 5.48494 356.335 4.33545C355.213 3.68139 353.852 3.43655 352.73 2.78135C349.274 0.762845 345.827 -0.591251 341.661 0.672036C338.254 1.70428 334.72 2.58248 331.189 2.87215C327.209 3.19861 324.731 5.29757 322.498 8.21842C321.813 9.11387 320.77 9.87943 319.73 10.3335C316.939 11.5519 314.836 13.2198 314.341 16.4522C314.238 17.1155 313.604 17.6821 313.288 18.3282C312.029 20.9019 309.956 23.4146 309.72 26.0849C309.087 33.2692 309.253 40.5236 309.074 47.7504C309.043 49.016 309.363 50.6931 308.694 51.469C306.165 54.4025 306.436 57.6809 307.316 60.8718C308.949 66.7894 310.579 72.8449 317.1 75.5945C317.53 75.7761 318.054 76.3738 318.07 76.7968C318.276 81.873 321.906 86.7503 318.534 92.0712C316.044 96.0002 314.227 100.351 311.84 104.352C311.217 105.396 309.665 106.128 308.394 106.487C306.37 107.059 304.955 107.838 304.414 110.102C304.118 111.337 303.215 112.573 302.268 113.478C299.553 116.074 296.706 118.534 293.847 120.972C293.125 121.587 292.203 122.203 291.302 122.337C284.453 123.359 275.289 128.863 274.575 137.174C274.442 138.721 273.98 140.238 273.678 141.77C273.462 142.86 273.258 143.952 273.049 145.043C272.788 145.028 272.527 145.013 272.268 144.999C271.932 143.15 271.452 141.313 271.287 139.449C270.503 130.532 264.911 125.294 257.064 123.111C253.079 122.002 250.536 119.92 247.84 117.385C246.507 116.132 244.91 115.153 243.619 113.862C242.557 112.8 241.312 111.58 240.96 110.219C240.311 107.711 238.805 106.792 236.492 106.477C235.733 106.373 234.684 106.127 234.341 105.583C229.598 98.0681 223.105 91.0769 226.452 80.9614C226.537 80.7028 226.557 80.42 226.583 80.1453C226.815 77.721 227.05 75.4048 230.184 74.8025C231.024 74.6415 231.784 73.5921 232.399 72.807C235.817 68.447 238.12 63.5754 238.443 57.9855C238.54 56.3049 238.482 54.1715 237.555 52.976C236.041 51.0265 236.188 49.1344 236.312 47.0309C236.415 45.2963 236.41 43.5514 236.369 41.8122C236.274 37.8786 236.18 33.9439 235.987 30.0139C235.771 25.6171 235.284 21.2915 231.761 18.0316C231.384 17.6833 231.095 17.1005 231.018 16.589C230.521 13.2785 228.442 11.4922 225.484 10.2875C224.374 9.8346 223.498 8.76328 222.573 7.91151C221.374 6.808 220.413 5.27343 219.024 4.58949C216.977 3.58254 214.664 3.06412 212.421 2.51581C208.688 1.60312 204.947 0.668587 201.156 0.0800499C199.616 -0.159044 197.81 0.177756 196.352 0.791583C193.401 2.03188 191.089 4.70674 187.503 4.58719C187.005 4.5711 186.425 5.21826 185.983 5.65851C183.684 7.95174 181.645 10.5795 179.082 12.5175C175.489 15.236 174.039 19.0914 172.82 23.0043C171.131 28.4207 170.815 34.06 171.149 39.7454C171.276 41.9248 170.966 44.1399 170.723 46.3239C170.667 46.8366 170.071 47.286 169.735 47.7734C169.02 48.8068 167.675 49.8655 167.706 50.8805C167.893 57.0889 168.619 63.2846 168.732 69.4918C168.887 78.0072 171.704 85.4674 176.579 92.3195C178.701 95.3013 178.562 97.921 176.509 100.931L176.585 100.858C176.579 100.88 176.574 100.902 176.569 100.925C177.964 100.666 178.287 101.413 178.117 102.637C177.405 107.788 180.884 110.998 183.842 114.29C184.487 115.007 186.695 114.861 187.921 114.406C190.916 113.294 193.848 111.931 196.644 110.377C202.1 107.342 207.441 104.102 212.84 100.965C213.263 100.719 213.768 100.614 214.493 100.743C202.858 111.583 193.632 124.353 184.285 137.391C182.851 133.363 183.493 131.83 187.465 128.816C191.532 125.729 191.532 125.729 188.948 121.469C187.144 118.497 183.186 116.927 180.033 117.935C177.951 118.6 175.616 122.838 175.597 125.574C175.56 130.731 174.752 135.777 172.567 140.491C170.967 143.942 169.159 147.296 166.873 150.563C166.873 150.009 166.781 149.435 166.887 148.902C169.813 134.126 172.757 119.354 175.709 104.583C175.835 103.958 175.981 103.337 176.131 102.718C176.277 102.12 176.428 101.523 176.57 100.926C176.562 100.927 176.556 100.927 176.548 100.928C175.386 103.061 174.108 105.141 173.105 107.346C171.806 110.201 170.13 112.483 167.111 113.817C162.324 115.935 157.704 118.427 152.93 120.575C151.392 121.267 149.606 121.637 147.913 121.718C138.224 122.18 130.255 125.797 124.861 134.119C122.809 137.285 122.523 141.397 119.606 144.168C119.18 144.574 119.335 145.567 119.165 146.275C119.021 146.875 118.935 147.558 118.585 148.027C116.406 150.955 114.057 153.761 111.974 156.753C110.731 158.538 109.214 160.52 109.002 162.537C108.735 165.073 107.823 166.911 106.186 168.644C105.544 169.325 105.037 170.144 104.535 170.941C104.163 171.531 103.96 172.228 103.574 172.805C102.074 175.045 100.544 177.265 98.9946 179.472C98.3763 180.354 97.766 181.268 97.0028 182.015C93.7938 185.162 90.5733 188.301 87.2551 191.331C86.3023 192.201 84.9702 192.642 83.8772 193.377C82.8888 194.041 81.8532 194.72 81.0889 195.608C80.2602 196.57 79.9326 198.017 79.0166 198.842C75.395 202.101 73.0641 205.928 73.6043 210.927C74.4916 219.146 75.4674 227.358 76.6512 235.538C76.9409 237.535 77.642 240.205 79.0867 241.171C83.9232 244.408 88.9573 247.578 94.3329 249.727C102.16 252.855 110.409 252.322 118.401 249.9C122.036 248.799 125.472 247.03 128.963 245.482C130.416 244.837 131.774 243.978 133.767 242.895C133.642 256.307 130.016 268.473 128.309 281.063C175.992 275.902 223.337 270.776 270.684 265.652C270.861 265.274 271.039 264.894 271.216 264.516C267.369 260.87 263.434 257.311 259.689 253.563C245.913 239.771 232.198 225.92 218.466 212.085C216.129 209.729 216.194 209.017 218.912 206.873C225.842 201.405 232.741 195.9 239.749 190.534C240.816 189.717 242.386 189.16 243.727 189.155C263.036 189.067 282.346 189.067 301.655 189.156C302.993 189.162 304.559 189.733 305.626 190.551C312.486 195.807 319.231 201.212 326.025 206.554C329.305 209.134 329.35 209.599 326.461 212.511C309.879 229.22 293.296 245.928 276.721 262.644C276.116 263.254 275.583 263.939 274.767 264.877C275.591 264.985 275.935 265.099 276.263 265.064C287.048 263.913 297.833 262.747 308.617 261.582C329.272 259.35 349.928 257.124 370.582 254.883C383.285 253.505 395.983 252.075 408.691 250.746C410.491 250.558 411.301 249.997 411.222 248.061C411.161 246.573 411.555 245.065 411.85 242.774C418.018 247.168 424.221 250.167 431.29 251.134C430.402 251.657 429.614 251.894 428.811 251.983C414.656 253.56 400.502 255.15 386.339 256.647C384.59 256.832 383.533 257.343 382.857 259.091C376.63 275.198 370.325 291.276 364.027 307.356C363.785 307.977 363.401 308.543 362.888 309.496C362.341 308.332 361.973 307.607 361.654 306.861C355.537 292.587 349.398 278.323 343.35 264.02C342.584 262.206 341.691 261.538 339.648 261.805C334.366 262.493 329.047 262.897 323.748 263.459C309.034 265.02 294.327 266.648 279.608 268.166C264.627 269.711 249.637 271.185 234.644 272.617C232.324 272.838 231.313 273.565 231.366 276.156C231.543 284.797 231.452 293.443 231.445 302.087C231.444 303.317 231.338 304.548 231.282 305.778C230.201 304.037 229.737 302.223 229.223 300.424C224.735 284.718 212.304 275.955 196.334 277.542C176.583 279.507 156.861 281.768 137.106 283.687C134.165 283.974 133.555 284.952 133.561 287.678C133.612 308.644 133.578 329.609 133.432 350.574C133.359 361.033 128.085 368.667 119.114 371.137C108.052 374.183 98.6878 369.351 97.4832 357.206C97.22 354.559 96.9959 351.893 96.989 349.237C96.9476 330.109 96.9672 310.981 96.9672 291.853C96.9672 290.776 96.9672 289.699 96.9672 288.315C95.15 288.426 93.703 288.462 92.2663 288.611C87.7873 289.075 83.3221 289.744 78.8327 290.007C76.2892 290.157 75.6547 291.123 75.6662 293.557C75.7582 312.408 75.7191 331.261 75.7202 350.113C75.7202 351.059 75.7202 352.004 75.7202 352.949C71.7768 347.159 65.8519 344.888 59.6098 342.605C60.4235 341.893 60.8649 341.459 61.351 341.087C69.3321 334.99 73.4882 327.148 73.1423 316.88C72.8296 307.586 67.5403 299.357 58.6535 296.459C54.3549 295.058 49.6311 293.855 45.2061 294.15C30.8219 295.11 16.4884 296.811 2.13295 298.203C0.489374 298.363 0.0158405 299.23 0.0376782 300.779C0.102042 305.192 -0.111738 309.616 0.142269 314.017C0.244562 315.801 0.901991 317.8 1.9433 319.24C6.35797 325.348 11.0174 331.28 15.57 337.289C15.9217 337.753 16.1367 338.321 16.57 339.131C11.7875 339.698 7.34641 340.37 2.88003 340.695C0.612354 340.859 0.00434695 341.672 0.0135418 343.883C0.0939965 362.918 0.112386 381.955 0.00204824 400.99C-0.0140427 403.71 0.861764 404.225 3.3639 403.931C14.2241 402.65 25.1349 401.762 35.963 400.267C42.6614 399.343 49.4598 398.219 55.833 396.061C67.2438 392.198 75.1927 384.636 77.45 372.197C77.4891 371.979 77.773 371.807 78.0684 371.473C78.5212 372.509 78.9132 373.422 79.3166 374.329C83.1956 383.063 89.7803 388.626 99.0475 390.882C106.045 392.584 113.112 392.308 120.116 390.89C135.558 387.762 146.804 379.53 152.141 364.222C152.349 363.624 152.777 363.102 153.104 362.544C153.628 363.704 153.628 364.699 153.628 365.693C153.624 372.13 153.689 378.568 153.581 385.004C153.545 387.098 154.158 387.746 156.285 387.471C161.753 386.766 167.235 386.128 172.731 385.735C175.082 385.566 175.619 384.61 175.59 382.47C175.492 375.206 175.602 367.94 175.516 360.675C175.494 358.818 176.118 358.002 177.976 357.865C180.724 357.661 183.478 357.402 186.194 356.952C188.156 356.628 189.423 357.159 190.62 358.788C194.699 364.347 198.927 369.795 203.097 375.287C208.25 382.073 208.241 382.005 216.644 380.904C227.378 379.498 238.123 378.158 248.877 376.913C253.102 376.425 253.121 376.577 253.121 372.413C253.121 346.663 253.145 320.915 253.078 295.165C253.072 292.809 253.575 291.758 256.2 291.592C261.697 291.246 267.168 290.484 272.65 289.893C276.44 289.485 276.441 289.485 276.441 293.249C276.441 318.998 276.474 344.747 276.386 370.497C276.376 373.009 277.101 373.72 279.533 373.385C284.448 372.708 289.387 372.192 294.324 371.686C298.091 371.3 298.104 371.353 298.104 367.63C298.105 341.788 298.133 315.948 298.056 290.106C298.049 287.77 298.73 286.862 301.093 286.659C308.05 286.06 314.989 285.239 321.937 284.518C323.708 284.334 325.48 284.195 325.354 281.429C326.076 282.236 326.503 282.795 326.809 283.416C334.258 298.492 341.611 313.614 349.182 328.628C351.356 332.938 352.325 337.26 352.13 342.085C351.857 348.879 352.167 355.695 352.007 362.496C351.946 365.103 352.483 366.106 355.345 365.661C360.336 364.885 365.372 364.256 370.411 364.007C373.432 363.857 373.924 362.603 373.878 359.941C373.728 351.207 373.77 342.469 373.866 333.734C373.883 332.137 374.227 330.424 374.879 328.971C384.055 308.52 393.307 288.103 402.552 267.682C402.936 266.834 403.439 266.037 403.885 265.216C404.096 265.289 404.308 265.36 404.518 265.432C404.518 266.502 404.518 267.572 404.518 268.642C404.516 298.162 404.555 327.681 404.448 357.201C404.437 360.02 405.425 360.39 407.833 360.066C412.84 359.394 417.868 358.804 422.905 358.452C425.546 358.267 426.283 357.19 426.233 354.654C426.088 347.484 426.235 340.309 426.146 333.137C426.122 331.157 426.776 330.5 428.78 330.255C434.332 329.576 439.983 329.092 445.35 327.629C460.312 323.549 471.088 314.578 476.02 299.462C476.936 296.654 477.434 293.707 478.201 290.512C479.865 292.498 481.182 294.36 482.786 295.928C486.97 300.015 492.258 302.198 497.692 303.98C503.708 305.955 509.851 307.556 515.822 309.653C519.29 310.87 522.163 312.984 522.456 317.267C522.774 321.91 520.598 325.044 516.693 327.071C511.595 329.72 506.123 330.011 500.576 329.006C495.028 328.001 490.297 325.163 485.73 322.022C484.79 321.374 483.869 320.249 482.746 321.822C478.96 327.121 475.16 332.41 471.242 337.874C472.157 338.636 472.888 339.314 473.687 339.897C486.689 349.384 501.246 351.484 516.451 347.632C531.393 343.846 541.352 334.603 543.645 318.611C545.42 306.208 540.557 296.659 529.381 291.135ZM139.627 236.474C138.651 233.131 138.299 229.236 139.289 225.622C140.955 219.537 142.952 213.473 145.579 207.756C146.619 205.493 149.514 203.766 151.943 202.554C154.17 201.443 156.892 201.243 159.43 200.874C160.347 200.74 161.362 201.283 162.333 201.517C155.707 203.973 152.473 208.12 151.676 215.65C151.152 220.606 152.944 223.64 158.786 226.734C155.196 228.426 152.048 229.822 148.981 231.381C145.933 232.931 142.969 234.644 139.627 236.474ZM259.998 259.663C255.13 260.183 250.692 260.661 246.254 261.13C236.757 262.132 227.258 263.118 217.762 264.13C207.991 265.17 198.223 266.238 188.453 267.285C178.592 268.342 168.73 269.393 158.868 270.434C157.408 270.588 155.916 270.869 154.485 270.705C153.63 270.606 152.862 269.752 152.054 269.238C152.781 268.546 153.413 267.432 154.252 267.243C156.479 266.742 158.795 266.624 161.078 266.381C174.408 264.958 187.737 263.52 201.071 262.132C213.492 260.839 225.92 259.609 238.342 258.335C243.913 257.764 249.489 257.217 255.046 256.531C257.311 256.25 258.728 257.1 259.998 259.663ZM253.081 252.606C248.456 253.139 244.225 253.657 239.985 254.109C230.131 255.158 220.274 256.177 210.42 257.207C200.657 258.227 190.895 259.247 181.132 260.267C177.572 260.638 174.019 261.119 170.449 261.3C169.586 261.344 168.672 260.395 167.781 259.903C168.548 259.161 169.247 257.863 170.089 257.763C179.015 256.693 187.964 255.81 196.907 254.882C206.488 253.888 216.07 252.902 225.652 251.911C233.226 251.128 240.805 250.397 248.369 249.527C250.549 249.277 251.848 250.118 253.081 252.606ZM227.01 244.283C231.934 243.763 236.851 243.177 241.772 242.606C243.902 242.359 245.235 243.292 246.249 245.782C242.41 246.239 238.995 246.682 235.573 247.05C222.536 248.451 209.498 249.84 196.457 251.209C192.445 251.629 188.43 252.065 184.405 252.273C183.609 252.314 182.759 251.348 181.934 250.846C182.733 250.143 183.472 248.912 184.339 248.815C198.552 247.221 212.784 245.783 227.01 244.283ZM310.669 235.516C320.404 234.218 330.179 233.206 339.954 232.227C340.749 232.148 341.641 233.041 342.488 233.482C342.003 234.217 341.587 235.532 341.022 235.601C329.466 236.999 317.895 238.254 306.325 239.538C306.144 239.116 305.962 238.693 305.78 238.271C307.404 237.318 308.947 235.746 310.669 235.516ZM303.224 243.545C319.574 241.845 335.915 240.077 352.267 238.393C353.274 238.289 354.637 238.364 355.303 238.955C356.485 240.005 355.362 241.693 353.256 241.945C346.142 242.793 339.024 243.594 331.903 244.369C321.313 245.522 310.72 246.639 300.127 247.762C299.422 247.837 298.71 247.83 297.421 247.888C298.903 245.138 300.609 243.816 303.224 243.545ZM367.519 248.204C354.285 249.602 341.049 250.984 327.818 252.406C315.59 253.72 303.368 255.08 291.141 256.407C290.526 256.473 289.897 256.416 288.773 256.416C290.179 253.978 291.635 252.514 294.056 252.258C313.037 250.246 332.019 248.226 351.001 246.209C356.385 245.637 361.767 245.038 367.156 244.519C368.437 244.396 370.198 243.818 370.471 245.868C370.753 247.998 369.011 248.046 367.519 248.204ZM406.32 232.834C406.148 234.16 405.855 235.471 405.709 236.286C399.409 233.091 393.262 229.974 386.46 226.526C392.508 224.434 394.389 220.397 393.504 215.254C392.985 212.241 391.646 209.334 390.421 206.489C389.08 203.377 386.317 202.308 382.88 202.551C382.901 202.279 382.922 202.007 382.942 201.736C383.78 201.412 384.6 201.014 385.464 200.795C385.864 200.694 386.35 201.008 386.802 201.028C396.113 201.44 400.753 206.826 403.101 215.411C404.674 221.168 407.122 226.676 406.32 232.834ZM40.9041 313.723C46.3187 313.62 49.5414 316.193 50.8253 320.443C52.3137 325.371 50.8138 331.211 46.9933 333.96C45.0946 335.327 42.8212 336.222 40.6202 337.087C39.9915 337.334 38.6881 336.994 38.2686 336.466C32.9149 329.717 27.6658 322.885 21.7949 315.306C28.7025 314.698 34.7964 313.84 40.9041 313.723ZM50.9827 375.928C48.2944 377.541 45.175 378.806 42.0971 379.32C35.9584 380.347 29.7036 380.665 23.5201 381.454C21.3168 381.735 20.7961 380.95 20.8685 378.951C20.8961 378.172 20.9122 377.394 20.9203 376.613C20.9444 374.274 20.8984 371.933 20.8984 369.593C20.8996 367.116 20.8398 364.635 20.8881 362.161C20.9042 361.335 20.9329 360.511 20.9789 359.688C21.0226 358.914 21.9903 357.624 22.6512 357.544C29.5657 356.709 36.4963 355.981 43.4395 355.439C45.3107 355.294 47.322 355.615 49.1219 356.187C52.6826 357.318 55.1595 359.688 55.6468 363.582C56.2617 368.495 55.5847 373.167 50.9827 375.928ZM208.529 316.963C208.456 317.775 208.347 318.574 208.204 319.358C207.916 320.927 207.488 322.441 206.915 323.898C205.769 326.81 204.045 329.496 201.717 331.949C200.261 333.482 198.648 334.683 196.877 335.556C195.991 335.991 195.066 336.345 194.1 336.618C193.135 336.89 192.128 337.08 191.08 337.189C189.983 337.303 188.885 337.412 187.789 337.52C184.497 337.843 181.204 338.158 177.926 338.588C177.683 338.62 177.462 338.636 177.263 338.636C175.871 338.639 175.525 337.87 175.531 336.342C175.551 330.643 175.561 324.945 175.561 319.246C175.561 313.546 175.55 307.848 175.524 302.149C175.522 301.516 175.584 301.014 175.761 300.625C175.878 300.366 176.046 300.158 176.278 299.995C176.394 299.913 176.526 299.845 176.677 299.785C176.977 299.666 177.348 299.592 177.806 299.555C179.91 299.386 182.009 299.153 184.108 298.903C185.157 298.779 186.205 298.65 187.255 298.524C188.304 298.397 189.352 298.273 190.403 298.157C191.103 298.08 191.785 298.032 192.452 298.013C195.118 297.938 197.514 298.324 199.594 299.131C201.154 299.735 202.536 300.578 203.722 301.639C204.513 302.347 205.215 303.152 205.826 304.049C207.045 305.845 207.892 308.009 208.322 310.503C208.537 311.749 208.647 313.077 208.647 314.483C208.641 315.324 208.603 316.15 208.529 316.963ZM231.167 374.477C230.966 374.6 230.766 374.724 230.564 374.847C224.183 366.539 217.801 358.229 211.191 349.623C217.094 345.836 221.759 341.095 224.58 335.06C227.308 329.222 229.184 322.985 231.167 317.644C231.167 335.963 231.167 355.22 231.167 374.477ZM448.584 304.997C447.552 305.769 446.419 306.446 445.189 307.023C443.958 307.601 442.63 308.079 441.209 308.455C439.787 308.83 438.271 309.103 436.665 309.266C434.018 309.536 431.362 309.749 428.729 310.121C428.485 310.155 428.262 310.175 428.058 310.18C427.035 310.2 426.484 309.834 426.264 308.994C426.175 308.659 426.141 308.247 426.149 307.755C426.244 302.248 426.182 296.739 426.181 291.23C426.18 285.814 426.244 280.395 426.144 274.98C426.131 274.293 426.202 273.749 426.395 273.33C426.716 272.634 427.377 272.283 428.562 272.184C429.522 272.105 430.479 272.004 431.437 271.892C433.352 271.671 435.262 271.409 437.178 271.2C438.135 271.096 439.094 271.005 440.054 270.94C440.613 270.902 441.163 270.891 441.703 270.907C442.243 270.923 442.772 270.968 443.29 271.038C445.364 271.32 447.257 272.021 448.914 273.083C449.743 273.614 450.511 274.235 451.215 274.937C453.324 277.046 454.835 279.895 455.555 283.28C455.795 284.409 455.947 285.597 456.003 286.837C456.372 294.904 453.743 301.137 448.584 304.997Z" fill="url(#paint0_linear)"/>
<defs>
<linearGradient id="paint0_linear" x1="522.017" y1="61.036" x2="31.3712" y2="379.468" gradientUnits="userSpaceOnUse">
<stop stop-color="#DEDEDE"/>
<stop offset="0.234375" stop-color="white"/>
<stop offset="0.604167" stop-color="white"/>
<stop offset="0.911458" stop-color="#DEDEDE"/>
</linearGradient>
</defs>
</svg>
