<svg width="299" height="222" viewBox="0 0 299 222" fill="none" xmlns="http://www.w3.org/2000/svg">
<path d="M290.037 160.102C287.931 159.062 285.642 158.39 283.425 157.581C280.69 156.582 277.898 155.724 275.219 154.596C273.524 153.883 272.383 152.554 272.421 150.498C272.459 148.402 273.494 146.911 275.291 146.072C276.489 145.512 277.855 145.188 279.178 145.036C282.904 144.609 286.236 145.898 289.321 147.817C290.477 148.537 290.999 148.313 291.671 147.235C293.079 144.973 294.629 142.799 296.114 140.584C297.209 138.952 297.205 138.948 295.607 137.783C295.444 137.664 295.278 137.552 295.11 137.44C289.901 133.979 284.111 133.538 278.136 134.303C272.864 134.978 268.301 137.137 264.762 141.204C262.779 143.482 261.639 146.184 260.89 149.598C259.382 146.308 257.768 143.651 255.215 141.672C252.683 139.71 249.747 138.697 246.695 138.055C249.091 136.704 251.309 135.368 253.606 134.184C255.7 133.106 256.667 131.431 256.914 129.156C257.342 125.21 257.784 121.263 258.363 117.337C258.845 114.075 257.796 111.528 255.294 109.465C254.906 109.145 254.722 108.59 254.384 108.194C253.917 107.645 253.446 107.077 252.881 106.641C252.315 106.204 251.537 106.025 251.016 105.552C249.159 103.864 247.357 102.113 245.567 100.354C245.151 99.9459 244.828 99.4322 244.519 98.9317C243.392 97.1075 242.292 95.267 241.175 93.4365C241.126 93.3567 241.022 93.3095 240.942 93.2492C239.694 92.3135 238.789 91.2332 239.2 89.509C239.257 89.2695 239.091 88.9305 238.939 88.6941C236.983 85.6438 234.129 83.1537 233.182 79.4696C233.123 79.2394 232.899 79.0564 232.784 78.8351C232.244 77.802 231.716 76.7626 231.183 75.7257C230.931 75.2358 230.717 74.7221 230.418 74.2631C227.456 69.713 223.125 67.6839 217.816 67.4355C217.076 67.4009 216.278 67.3531 215.62 67.0582C212.912 65.8446 210.278 64.46 207.554 63.2841C205.645 62.4598 204.573 61.045 203.795 59.2089C203.324 58.0978 202.589 57.098 201.968 56.0504C201.962 56.0498 201.957 56.0504 201.951 56.0498C203.838 65.0662 205.725 74.0826 207.664 83.3493C207.149 83.1468 206.941 83.1304 206.901 83.0399C205.602 80.0512 204.206 77.0971 203.089 74.0417C202.608 72.7256 202.577 71.197 202.577 69.7646C202.576 66.31 199.879 64.1808 196.838 65.7088C195.582 66.3395 194.899 68.1354 194.029 69.4496C193.954 69.5628 194.389 70.0928 194.665 70.3425C195.515 71.1115 196.325 71.9667 197.294 72.5527C198.725 73.4173 198.127 74.5787 197.968 75.786C192.691 68.9145 187.682 61.8681 181.145 56.1101C181.233 55.9944 181.322 55.8787 181.41 55.763C181.727 55.9039 182.06 56.0177 182.359 56.19C185.627 58.0783 188.889 59.9792 192.158 61.8668C192.68 62.1687 193.205 62.5 193.773 62.6818C195.167 63.1288 196.773 64.4745 198.001 63.3804C199.67 61.8939 201.329 60.1169 201.261 57.5042C201.248 56.9942 200.605 55.9642 201.952 56.0504C201.949 56.0372 201.946 56.024 201.944 56.0108L201.987 56.0517C200.901 54.3834 201.132 52.8353 202.11 51.1369C203.432 48.8424 205.05 46.5171 205.565 44.005C206.477 39.5531 206.746 34.9584 207.08 30.4084C207.176 29.108 207.439 27.3744 205.489 26.7595C205.318 26.7054 205.259 26.1388 205.236 25.8043C205.028 22.7295 204.751 19.6552 204.665 16.5766C204.529 11.6889 201.791 8.28646 198.376 5.26946C197.45 4.45013 196.323 3.84271 195.243 3.2139C194.628 2.85611 193.883 2.72218 193.268 2.36376C191.375 1.25958 189.487 0.518849 187.205 1.2099C185.338 1.77457 183.402 2.25498 181.468 2.41343C179.288 2.59201 177.93 3.74021 176.707 5.338C176.332 5.82784 175.761 6.24662 175.191 6.495C173.662 7.16153 172.51 8.07393 172.239 9.84212C172.183 10.2049 171.835 10.5149 171.662 10.8683C170.973 12.2762 169.837 13.6508 169.708 15.1115C169.361 19.0415 169.452 23.0099 169.354 26.9632C169.337 27.6555 169.512 28.5729 169.146 28.9974C167.76 30.6021 167.908 32.3954 168.391 34.141C169.285 37.3781 170.178 40.6906 173.75 42.1947C173.986 42.2941 174.273 42.621 174.282 42.8524C174.395 45.6292 176.383 48.2972 174.536 51.208C173.172 53.3572 172.176 55.7372 170.869 57.9261C170.528 58.4971 169.678 58.8976 168.981 59.0938C167.872 59.4069 167.097 59.8326 166.801 61.0714C166.639 61.7467 166.144 62.4233 165.625 62.9182C164.138 64.338 162.579 65.6837 161.012 67.0174C160.617 67.3538 160.112 67.6908 159.618 67.7644C155.866 68.3234 150.847 71.3341 150.456 75.8803C150.383 76.7267 150.129 77.5567 149.964 78.3949C149.846 78.991 149.734 79.5884 149.619 80.1851C149.477 80.177 149.334 80.1688 149.191 80.1612C149.008 79.1495 148.744 78.1447 148.654 77.1247C148.225 72.2471 145.161 69.3817 140.863 68.1876C138.68 67.5808 137.287 66.442 135.81 65.0555C135.08 64.3701 134.205 63.8344 133.498 63.1282C132.916 62.5472 132.234 61.88 132.041 61.1355C131.686 59.7635 130.861 59.2604 129.594 59.0881C129.178 59.0315 128.603 58.897 128.416 58.5996C125.817 54.4884 122.26 50.6641 124.094 45.1306C124.14 44.9891 124.151 44.8344 124.166 44.6841C124.293 43.358 124.421 42.0909 126.138 41.7615C126.598 41.6734 127.015 41.0993 127.351 40.6698C129.224 38.2848 130.486 35.6199 130.663 32.5621C130.715 31.6427 130.684 30.4757 130.176 29.8217C129.347 28.7553 129.427 27.7203 129.495 26.5696C129.551 25.6207 129.549 24.6662 129.526 23.7148C129.475 21.563 129.423 19.4106 129.317 17.2607C129.199 14.8556 128.932 12.4894 127.002 10.7061C126.796 10.5156 126.638 10.1968 126.595 9.91695C126.323 8.10599 125.184 7.12883 123.564 6.46985C122.956 6.2221 122.476 5.63605 121.969 5.17011C121.312 4.56646 120.786 3.72701 120.025 3.35287C118.903 2.80204 117.637 2.51844 116.408 2.21851C114.363 1.71924 112.313 1.20802 110.237 0.886071C109.393 0.755279 108.404 0.939519 107.605 1.2753C105.989 1.95378 104.722 3.41701 102.758 3.35161C102.485 3.34281 102.167 3.69682 101.925 3.93765C100.666 5.19212 99.5486 6.62956 98.1446 7.68973C96.1764 9.17685 95.3825 11.2859 94.7145 13.4263C93.7896 16.3892 93.6164 19.4741 93.799 22.5842C93.8689 23.7764 93.6989 24.9881 93.5661 26.1828C93.5352 26.4633 93.2084 26.7092 93.0246 26.9758C92.633 27.5411 91.8963 28.1202 91.9133 28.6754C92.0153 32.0716 92.4132 35.4608 92.475 38.8564C92.5599 43.5146 94.1031 47.5955 96.7739 51.3438C97.9362 52.9749 97.86 54.408 96.7355 56.0548L96.7771 56.0145C96.7739 56.0265 96.7708 56.0384 96.7682 56.051C97.5326 55.9095 97.7095 56.3183 97.6163 56.9879C97.226 59.8056 99.1318 61.5612 100.752 63.3621C101.106 63.7545 102.315 63.6746 102.987 63.4256C104.628 62.8176 106.234 62.0718 107.765 61.2217C110.754 59.5616 113.68 57.789 116.637 56.073C116.869 55.9385 117.146 55.8812 117.543 55.9517C111.169 61.8813 106.115 68.8673 100.995 75.9992C100.21 73.7959 100.561 72.957 102.737 71.3083C104.965 69.62 104.965 69.62 103.549 67.2896C102.561 65.6635 100.393 64.8046 98.6659 65.3561C97.525 65.7201 96.2463 68.0385 96.2356 69.5351C96.2155 72.3559 95.7728 75.1163 94.576 77.6951C93.6995 79.5827 92.7092 81.4176 91.4569 83.2046C91.4569 82.9016 91.4065 82.5878 91.4644 82.296C93.0674 74.2134 94.6798 66.1326 96.2973 58.0525C96.3659 57.7104 96.4459 57.3709 96.5284 57.032C96.6083 56.705 96.6908 56.3786 96.7689 56.0517C96.7645 56.0523 96.7613 56.0523 96.7569 56.0529C96.1204 57.22 95.4202 58.3575 94.8706 59.5635C94.1591 61.1255 93.2412 62.3736 91.5872 63.1037C88.9649 64.2619 86.4339 65.6252 83.8191 66.8004C82.9767 67.179 81.9983 67.3814 81.0708 67.4254C75.7632 67.6782 71.3975 69.6571 68.4428 74.2096C67.3189 75.9413 67.1622 78.1906 65.5642 79.7066C65.3306 79.9286 65.4156 80.4719 65.3225 80.8592C65.2438 81.1874 65.1965 81.5609 65.0051 81.8175C63.8114 83.4191 62.5245 84.954 61.3836 86.5908C60.7024 87.5673 59.8713 88.6513 59.7555 89.7549C59.6094 91.142 59.1095 92.1475 58.2129 93.0957C57.861 93.468 57.5833 93.9163 57.3082 94.3521C57.1048 94.6747 56.9934 95.0563 56.7818 95.372C55.9602 96.5969 55.1222 97.8118 54.2735 99.0191C53.9347 99.5013 53.6004 100.001 53.1823 100.41C51.4245 102.132 49.6603 103.848 47.8426 105.506C47.3207 105.982 46.591 106.223 45.9922 106.625C45.4507 106.989 44.8835 107.36 44.4648 107.846C44.0108 108.372 43.8314 109.164 43.3296 109.615C41.3457 111.398 40.0689 113.491 40.3648 116.226C40.8508 120.722 41.3854 125.214 42.0339 129.688C42.1925 130.781 42.5766 132.241 43.368 132.77C46.0174 134.541 48.7751 136.275 51.7198 137.45C56.0074 139.161 60.5261 138.87 64.9044 137.545C66.8952 136.943 68.7777 135.975 70.6899 135.128C71.4857 134.775 72.2299 134.306 73.3216 133.713C73.253 141.05 71.2666 147.705 70.3316 154.592C96.4522 151.769 122.388 148.965 148.324 146.162C148.421 145.955 148.518 145.747 148.615 145.54C146.508 143.546 144.352 141.599 142.301 139.549C134.754 132.004 127.241 124.427 119.719 116.859C118.439 115.57 118.475 115.181 119.964 114.008C123.76 111.017 127.539 108.005 131.378 105.07C131.962 104.623 132.822 104.319 133.557 104.315C144.134 104.268 154.712 104.268 165.29 104.316C166.023 104.319 166.88 104.632 167.465 105.079C171.223 107.954 174.918 110.911 178.639 113.834C180.436 115.245 180.461 115.499 178.878 117.092C169.795 126.232 160.711 135.372 151.631 144.516C151.299 144.85 151.008 145.225 150.561 145.738C151.012 145.797 151.2 145.859 151.38 145.84C157.288 145.21 163.196 144.573 169.103 143.935C180.418 142.715 191.733 141.497 203.047 140.271C210.006 139.517 216.962 138.735 223.923 138.008C224.909 137.905 225.353 137.598 225.31 136.539C225.276 135.725 225.492 134.9 225.654 133.647C229.033 136.051 232.431 137.691 236.303 138.22C235.817 138.506 235.385 138.636 234.945 138.685C227.191 139.547 219.437 140.417 211.679 141.236C210.721 141.337 210.142 141.617 209.772 142.573C206.36 151.384 202.906 160.179 199.457 168.975C199.324 169.315 199.114 169.624 198.833 170.146C198.533 169.509 198.332 169.112 198.157 168.704C194.806 160.896 191.443 153.093 188.13 145.269C187.71 144.277 187.221 143.911 186.102 144.057C183.208 144.434 180.295 144.654 177.392 144.962C169.332 145.816 161.275 146.707 153.213 147.537C145.006 148.382 136.794 149.189 128.581 149.972C127.311 150.093 126.757 150.49 126.785 151.908C126.882 156.634 126.833 161.364 126.829 166.093C126.828 166.766 126.77 167.439 126.74 168.112C126.148 167.159 125.893 166.167 125.612 165.183C123.153 156.592 116.343 151.798 107.596 152.666C96.7758 153.741 85.9724 154.978 75.1506 156.028C73.5395 156.184 73.2052 156.719 73.2089 158.211C73.2366 169.68 73.2178 181.148 73.1378 192.616C73.0981 198.338 70.2088 202.514 65.2948 203.865C59.2348 205.531 54.1054 202.888 53.4455 196.245C53.3013 194.797 53.1786 193.338 53.1748 191.885C53.1521 181.422 53.1628 170.958 53.1628 160.495C53.1628 159.905 53.1628 159.316 53.1628 158.559C52.1674 158.62 51.3747 158.64 50.5877 158.721C48.1341 158.975 45.6881 159.341 43.2289 159.485C41.8355 159.567 41.488 160.095 41.4943 161.427C41.5447 171.739 41.5232 182.052 41.5239 192.364C41.5239 192.882 41.5239 193.399 41.5239 193.916C39.3637 190.748 36.1181 189.506 32.6987 188.258C33.1444 187.868 33.3862 187.631 33.6525 187.427C38.0245 184.092 40.3012 179.802 40.1117 174.185C39.9404 169.101 37.043 164.6 32.1748 163.014C29.8201 162.248 27.2324 161.589 24.8084 161.751C16.9288 162.276 9.077 163.207 1.21319 163.968C0.312849 164.056 0.0534506 164.53 0.0654132 165.377C0.100671 167.791 -0.0164359 170.212 0.122708 172.619C0.178743 173.595 0.538879 174.688 1.1093 175.476C3.52763 178.817 6.08006 182.062 8.57394 185.349C8.7666 185.603 8.88434 185.914 9.1217 186.357C6.5019 186.667 4.06909 187.035 1.62244 187.213C0.380217 187.302 0.0471546 187.747 0.0521914 188.956C0.096264 199.369 0.106338 209.783 0.0458953 220.196C0.0370808 221.684 0.516843 221.965 1.8875 221.804C7.83667 221.104 13.8135 220.618 19.7451 219.8C23.4144 219.295 27.1386 218.68 30.6298 217.5C36.8805 215.386 41.2349 211.25 42.4714 204.445C42.4928 204.326 42.6484 204.232 42.8102 204.049C43.0582 204.616 43.2729 205.115 43.4939 205.611C45.6189 210.389 49.2259 213.432 54.3024 214.666C58.1355 215.597 62.0069 215.446 65.8438 214.671C74.3026 212.96 80.4633 208.457 83.3866 200.082C83.5005 199.755 83.7354 199.47 83.9142 199.165C84.2013 199.799 84.2013 200.343 84.2013 200.887C84.1994 204.408 84.2346 207.93 84.1754 211.451C84.1559 212.596 84.4915 212.951 85.6569 212.8C88.652 212.415 91.6552 212.066 94.666 211.851C95.9535 211.759 96.2476 211.235 96.2318 210.065C96.1783 206.091 96.2387 202.116 96.1915 198.142C96.1796 197.126 96.5214 196.68 97.5389 196.605C99.0443 196.494 100.553 196.352 102.041 196.106C103.115 195.928 103.81 196.219 104.465 197.11C106.7 200.151 109.016 203.131 111.3 206.135C114.123 209.848 114.118 209.81 118.721 209.208C124.601 208.439 130.487 207.706 136.378 207.025C138.693 206.758 138.703 206.841 138.703 204.563C138.703 190.477 138.716 176.392 138.679 162.306C138.676 161.017 138.951 160.442 140.389 160.352C143.401 160.163 146.398 159.746 149.401 159.423C151.477 159.199 151.477 159.199 151.477 161.258C151.477 175.344 151.496 189.429 151.447 203.515C151.442 204.889 151.839 205.278 153.171 205.095C155.864 204.725 158.569 204.442 161.274 204.166C163.337 203.954 163.344 203.983 163.344 201.947C163.345 187.811 163.36 173.675 163.318 159.539C163.314 158.261 163.687 157.764 164.982 157.653C168.793 157.326 172.594 156.877 176.4 156.482C177.37 156.382 178.341 156.306 178.272 154.792C178.667 155.233 178.901 155.54 179.069 155.879C183.149 164.126 187.178 172.399 191.325 180.611C192.515 182.969 193.046 185.334 192.94 187.973C192.79 191.69 192.96 195.418 192.872 199.138C192.839 200.565 193.133 201.113 194.701 200.87C197.434 200.445 200.193 200.101 202.954 199.965C204.609 199.883 204.878 199.197 204.853 197.741C204.771 192.963 204.794 188.183 204.846 183.405C204.856 182.531 205.044 181.594 205.402 180.799C210.428 169.612 215.496 158.443 220.561 147.272C220.771 146.808 221.046 146.372 221.29 145.923C221.406 145.963 221.522 146.002 221.637 146.042C221.637 146.627 221.637 147.212 221.637 147.797C221.636 163.946 221.657 180.093 221.599 196.242C221.593 197.784 222.134 197.986 223.453 197.809C226.196 197.441 228.95 197.119 231.71 196.926C233.157 196.825 233.56 196.236 233.532 194.849C233.453 190.926 233.534 187.001 233.485 183.078C233.472 181.995 233.83 181.636 234.928 181.502C237.969 181.13 241.065 180.865 244.005 180.065C252.201 177.833 258.104 172.926 260.806 164.657C261.308 163.121 261.58 161.509 262 159.761C262.912 160.847 263.633 161.866 264.512 162.724C266.804 164.959 269.701 166.153 272.678 167.129C275.973 168.209 279.338 169.085 282.609 170.232C284.509 170.898 286.083 172.054 286.243 174.397C286.417 176.937 285.225 178.651 283.086 179.76C280.293 181.209 277.296 181.368 274.257 180.818C271.218 180.269 268.627 178.716 266.125 176.998C265.61 176.644 265.105 176.028 264.49 176.888C262.416 179.787 260.335 182.68 258.189 185.669C258.69 186.086 259.09 186.457 259.528 186.776C266.65 191.966 274.625 193.115 282.954 191.007C291.138 188.936 296.594 183.88 297.85 175.132C298.823 168.347 296.159 163.124 290.037 160.102ZM76.5314 130.201C75.9968 128.372 75.8042 126.241 76.3463 124.264C77.2592 120.935 78.3528 117.618 79.7921 114.491C80.3619 113.253 81.9479 112.308 83.2783 111.645C84.4984 111.037 85.9893 110.928 87.3795 110.726C87.882 110.653 88.4379 110.95 88.9699 111.078C85.3402 112.421 83.5685 114.69 83.1322 118.809C82.8451 121.52 83.8266 123.18 87.0269 124.872C85.0601 125.798 83.3355 126.562 81.6558 127.415C79.986 128.262 78.3623 129.2 76.5314 130.201ZM142.47 142.886C139.803 143.17 137.372 143.431 134.941 143.688C129.739 144.236 124.535 144.776 119.333 145.329C113.981 145.898 108.63 146.482 103.278 147.055C97.8764 147.633 92.4743 148.208 87.0716 148.778C86.272 148.862 85.4548 149.016 84.6709 148.926C84.2025 148.872 83.7819 148.405 83.3393 148.124C83.7372 147.745 84.0835 147.136 84.5431 147.032C85.7633 146.758 87.032 146.694 88.2824 146.56C95.5846 145.782 102.886 144.995 110.19 144.236C116.994 143.529 123.802 142.856 130.607 142.159C133.659 141.847 136.713 141.548 139.757 141.172C140.998 141.019 141.775 141.483 142.47 142.886ZM138.681 139.025C136.148 139.317 133.83 139.6 131.507 139.847C126.109 140.421 120.71 140.978 115.311 141.542C109.964 142.1 104.616 142.658 99.2678 143.216C97.3179 143.419 95.3711 143.682 93.4156 143.781C92.9427 143.805 92.4422 143.286 91.9543 143.017C92.3742 142.611 92.757 141.901 93.2185 141.846C98.1081 141.261 103.01 140.778 107.909 140.27C113.158 139.727 118.407 139.187 123.656 138.645C127.805 138.217 131.956 137.817 136.1 137.341C137.294 137.204 138.006 137.664 138.681 139.025ZM124.399 134.472C127.097 134.188 129.791 133.867 132.486 133.555C133.653 133.42 134.383 133.93 134.938 135.292C132.835 135.542 130.965 135.785 129.09 135.986C121.949 136.752 114.807 137.512 107.663 138.261C105.465 138.491 103.266 138.729 101.061 138.843C100.625 138.866 100.159 138.337 99.7073 138.063C100.145 137.678 100.55 137.004 101.024 136.952C108.81 136.079 116.607 135.293 124.399 134.472ZM170.227 129.676C175.56 128.966 180.915 128.413 186.27 127.877C186.705 127.834 187.194 128.323 187.658 128.564C187.392 128.966 187.164 129.685 186.855 129.723C180.524 130.488 174.186 131.174 167.848 131.877C167.748 131.646 167.649 131.414 167.549 131.184C168.439 130.662 169.284 129.802 170.227 129.676ZM166.149 134.069C175.105 133.139 184.057 132.171 193.015 131.25C193.566 131.194 194.313 131.235 194.677 131.558C195.325 132.132 194.71 133.056 193.556 133.193C189.659 133.657 185.76 134.096 181.859 134.519C176.058 135.15 170.256 135.761 164.452 136.376C164.066 136.417 163.676 136.413 162.97 136.444C163.782 134.94 164.717 134.217 166.149 134.069ZM201.37 136.617C194.12 137.382 186.87 138.138 179.622 138.916C172.923 139.635 166.228 140.379 159.53 141.104C159.193 141.141 158.849 141.109 158.233 141.109C159.003 139.776 159.801 138.975 161.127 138.835C171.525 137.734 181.923 136.629 192.321 135.526C195.271 135.213 198.218 134.885 201.171 134.601C201.873 134.534 202.837 134.218 202.986 135.339C203.141 136.505 202.187 136.531 201.37 136.617ZM222.624 128.209C222.53 128.935 222.37 129.652 222.29 130.098C218.839 128.35 215.472 126.645 211.745 124.759C215.058 123.614 216.089 121.406 215.604 118.592C215.32 116.944 214.586 115.354 213.915 113.798C213.18 112.096 211.667 111.511 209.784 111.644C209.796 111.495 209.807 111.346 209.818 111.198C210.277 111.02 210.726 110.803 211.2 110.683C211.419 110.628 211.685 110.8 211.932 110.81C217.033 111.036 219.575 113.982 220.861 118.679C221.723 121.828 223.064 124.841 222.624 128.209ZM22.4518 172.458C25.4179 172.402 27.1833 173.809 27.8866 176.134C28.7019 178.83 27.8803 182.024 25.7874 183.528C24.7473 184.276 23.502 184.766 22.2963 185.239C21.9519 185.374 21.2379 185.188 21.0081 184.899C18.0754 181.207 15.1999 177.47 11.9839 173.324C15.7678 172.992 19.106 172.522 22.4518 172.458ZM27.9728 206.486C26.5002 207.368 24.7914 208.061 23.1053 208.342C19.7426 208.903 16.3162 209.077 12.9289 209.509C11.722 209.663 11.4368 209.233 11.4764 208.14C11.4915 207.713 11.5004 207.288 11.5048 206.861C11.518 205.581 11.4928 204.301 11.4928 203.021C11.4934 201.666 11.4607 200.309 11.4871 198.955C11.496 198.503 11.5117 198.052 11.5369 197.602C11.5608 197.179 12.0909 196.473 12.453 196.43C16.2407 195.972 20.0372 195.574 23.8407 195.278C24.8657 195.198 25.9675 195.374 26.9535 195.687C28.904 196.306 30.2608 197.602 30.5278 199.733C30.8646 202.42 30.4938 204.976 27.9728 206.486ZM114.276 174.23C114.235 174.675 114.176 175.112 114.098 175.541C113.94 176.399 113.705 177.227 113.392 178.024C112.764 179.617 111.82 181.086 110.544 182.428C109.746 183.267 108.863 183.924 107.893 184.401C107.407 184.639 106.901 184.833 106.372 184.982C105.843 185.131 105.291 185.235 104.717 185.295C104.116 185.357 103.515 185.417 102.914 185.476C101.111 185.652 99.3075 185.825 97.5118 186.06C97.3783 186.078 97.2575 186.086 97.1485 186.086C96.3861 186.088 96.1966 185.667 96.1997 184.831C96.2104 181.714 96.2161 178.597 96.2161 175.479C96.2161 172.361 96.2098 169.244 96.1959 166.127C96.1947 165.78 96.2287 165.506 96.3256 165.293C96.3899 165.152 96.4818 165.038 96.609 164.949C96.6725 164.904 96.7449 164.866 96.8274 164.833C96.9918 164.769 97.1951 164.728 97.4457 164.708C98.5985 164.615 99.7482 164.488 100.898 164.351C101.473 164.283 102.047 164.213 102.622 164.144C103.197 164.074 103.771 164.007 104.346 163.943C104.73 163.901 105.104 163.874 105.469 163.864C106.93 163.823 108.242 164.034 109.381 164.476C110.236 164.806 110.993 165.267 111.643 165.848C112.076 166.235 112.461 166.675 112.795 167.166C113.463 168.148 113.927 169.333 114.162 170.696C114.28 171.378 114.341 172.105 114.341 172.874C114.337 173.334 114.316 173.786 114.276 174.23ZM126.677 205.692C126.566 205.76 126.457 205.828 126.347 205.895C122.851 201.35 119.355 196.804 115.734 192.096C118.968 190.025 121.523 187.431 123.068 184.13C124.563 180.936 125.59 177.525 126.677 174.603C126.677 184.624 126.677 195.158 126.677 205.692ZM245.776 167.684C245.211 168.107 244.59 168.477 243.917 168.793C243.242 169.109 242.515 169.371 241.736 169.577C240.957 169.781 240.127 169.931 239.247 170.02C237.797 170.168 236.342 170.284 234.9 170.488C234.766 170.506 234.644 170.517 234.532 170.52C233.972 170.531 233.67 170.33 233.549 169.871C233.501 169.688 233.482 169.463 233.487 169.194C233.539 166.181 233.505 163.167 233.504 160.154C233.503 157.191 233.539 154.227 233.484 151.264C233.477 150.888 233.515 150.591 233.621 150.362C233.798 149.981 234.16 149.789 234.809 149.735C235.334 149.692 235.859 149.636 236.383 149.576C237.432 149.454 238.479 149.311 239.528 149.197C240.053 149.14 240.578 149.09 241.104 149.054C241.41 149.033 241.711 149.028 242.007 149.037C242.303 149.045 242.593 149.07 242.876 149.108C244.012 149.262 245.049 149.646 245.957 150.227C246.411 150.517 246.832 150.857 247.218 151.241C248.373 152.394 249.201 153.953 249.595 155.805C249.727 156.423 249.81 157.072 249.841 157.751C250.043 162.164 248.603 165.573 245.776 167.684Z" fill="url(#paint0_linear)"/>
<defs>
<linearGradient id="paint0_linear" x1="286.002" y1="34.2308" x2="17.4524" y2="208.765" gradientUnits="userSpaceOnUse">
<stop stop-color="#DEDEDE"/>
<stop offset="0.234375" stop-color="white"/>
<stop offset="0.604167" stop-color="white"/>
<stop offset="0.911458" stop-color="#DEDEDE"/>
</linearGradient>
</defs>
</svg>
