<svg width="25" height="20" viewBox="0 0 25 20" fill="none" xmlns="http://www.w3.org/2000/svg">
<path d="M0.297729 17.8755C2.88072 17.9505 5.21747 17.3495 7.38299 15.7884C5.13444 15.5519 3.61625 14.5233 2.78846 12.5513C3.49621 12.5215 4.15178 12.4938 4.80747 12.4661C2.47215 11.6255 1.16638 10.1098 0.994163 7.7184C1.71092 7.9097 2.38363 8.08911 3.05634 8.26863C0.992736 6.42569 0.526396 4.34245 1.67654 1.82393C4.40615 4.86776 7.77893 6.54769 11.9342 6.83805C11.9342 6.24754 11.8708 5.67197 11.9459 5.11353C12.1943 3.26692 13.2724 1.97873 15.0596 1.30619C16.8773 0.622086 18.5892 0.927384 20.0913 2.12386C20.4261 2.39046 20.7046 2.4972 21.1152 2.34292C21.9283 2.03742 22.7524 1.75893 23.5986 1.45984C23.268 2.44504 22.5849 3.2034 21.7286 3.91222C21.9957 3.87215 22.2657 3.84438 22.5292 3.78886C22.8145 3.7287 23.0962 3.65046 23.3747 3.5658C23.6497 3.48219 23.9188 3.38071 24.1904 3.287C24.2261 3.3257 24.2619 3.36451 24.2976 3.40321C23.6436 4.03894 23.026 4.71558 22.3203 5.29368C21.9545 5.59341 21.8624 5.87862 21.8438 6.3078C21.6056 11.8329 19.1111 16.1109 13.8619 18.5529C9.41485 20.6216 4.89753 20.3385 0.550229 18.0364C0.462145 17.9896 0.38175 17.9293 0.297729 17.8755Z" fill="#0EDB69"/>
</svg>
