<svg width="97" height="98" viewBox="0 0 97 98" fill="none" xmlns="http://www.w3.org/2000/svg">
<rect y="0.196289" width="97" height="97" rx="19" fill="black" fill-opacity="0.5"/>
<g clip-path="url(#clip0)">
<path d="M21 77.1962C21.3258 75.9676 21.62 74.8328 21.9276 73.7018C22.8107 70.4552 23.6952 67.209 24.5889 63.9656C24.8002 63.1981 24.6301 62.5054 24.2731 61.8237C23.0556 59.4989 22.1907 57.0445 21.6938 54.4748C20.4145 47.8575 21.3325 41.5438 24.5936 35.6331C28.0359 29.3937 33.2131 25.1332 39.9658 22.7888C43.0621 21.7136 46.2715 21.141 49.5484 21.2005C54.7266 21.2948 59.5488 22.6793 63.9488 25.4462C67.9129 27.9387 71.0571 31.2111 73.3829 35.2496C75.2391 38.4729 76.3608 41.9459 76.7954 45.6394C77.4394 51.1152 76.563 56.3442 74.1284 61.2859C71.472 66.6787 67.461 70.8029 62.1146 73.627C59.4721 75.0229 56.67 75.9538 53.7232 76.4307C50.8924 76.889 48.0539 76.9475 45.1996 76.5455C42.1761 76.1196 39.319 75.2049 36.5777 73.8957C35.9467 73.5946 35.296 73.5456 34.6209 73.7195C30.1969 74.8576 25.7724 75.9933 21.3483 77.1295C21.276 77.1486 21.2012 77.1586 21 77.1962ZM27.3727 70.8577C27.6113 70.8334 27.7062 70.8363 27.7944 70.8134C30.1624 70.1998 32.5399 69.6191 34.8921 68.9507C35.8681 68.6734 36.7105 68.7511 37.5772 69.2608C39.2634 70.2527 41.0674 70.9811 42.9572 71.5018C47.4027 72.7266 51.8224 72.5628 56.1962 71.1898C60.0878 69.9683 63.4323 67.8559 66.208 64.8693C69.5061 61.3206 71.5496 57.1759 72.2463 52.3805C72.8573 48.1763 72.3992 44.0854 70.7226 40.1918C67.5123 32.7366 61.9033 28.0235 53.9317 26.2508C48.2681 24.9912 42.8235 25.8602 37.7742 28.6557C31.8432 31.9391 28.0766 36.9556 26.3473 43.4875C25.6559 46.0991 25.5083 48.7546 25.7733 51.4186C26.0953 54.6544 27.1432 57.6776 28.7699 60.5046C29.4762 61.7318 29.6343 63.0328 29.2237 64.4106C28.595 66.5196 28.0071 68.6401 27.3727 70.8577Z" fill="#0EDB69"/>
<path d="M63.1304 56.6706C63.0629 59.3265 61.3001 61.3632 58.463 62.094C56.8698 62.5046 55.3054 62.2812 53.7505 61.9153C49.6787 60.9568 46.2456 58.832 43.1608 56.0975C40.4363 53.6821 38.2159 50.8533 36.3904 47.7209C34.9424 45.236 34.4273 42.6287 35.5106 39.8503C35.9778 38.6522 36.7258 37.6512 37.6793 36.8066C38.4522 36.122 40.4114 35.9519 41.2897 36.4812C41.5034 36.6098 41.6936 36.8499 41.7928 37.0815C42.5949 38.9504 43.3913 40.8226 44.1498 42.7097C44.4617 43.4862 43.9787 44.1112 43.5671 44.7015C43.2082 45.216 42.7698 45.6748 42.3803 46.1693C41.915 46.7605 41.8915 47.1302 42.2811 47.7862C44.5384 51.5869 47.6945 54.3548 51.8445 55.9646C52.6557 56.279 53.038 56.137 53.5867 55.4553C54.2086 54.6831 54.8243 53.9051 55.465 53.1481C56.0629 52.4416 56.3931 52.3792 57.2129 52.7689C58.8861 53.5649 60.5583 54.3634 62.2263 55.1704C63.0931 55.5897 63.1549 55.7092 63.1304 56.6706Z" fill="#0EDB69"/>
</g>
<defs>
<clipPath id="clip0">
<rect width="56" height="56" fill="white" transform="translate(21 21.1963)"/>
</clipPath>
</defs>
</svg>
