<svg width="34" height="34" viewBox="0 0 34 34" fill="none" xmlns="http://www.w3.org/2000/svg">
<path d="M0.947968 33.5156C1.13997 32.7916 1.31334 32.1229 1.49461 31.4564C2.015 29.5432 2.53623 27.6302 3.06283 25.719C3.18735 25.2667 3.08711 24.8585 2.87675 24.4568C2.15928 23.0868 1.64963 21.6404 1.35682 20.1261C0.602926 16.2267 1.14392 12.5061 3.06565 9.02302C5.09411 5.34622 8.14499 2.83559 12.1243 1.45409C13.9488 0.820465 15.8401 0.48302 17.7711 0.518112C20.8226 0.573698 23.6642 1.38952 26.2571 3.02003C28.5931 4.48885 30.4459 6.41723 31.8164 8.79703C32.9103 10.6965 33.5713 12.7431 33.8274 14.9196C34.2069 18.1464 33.6905 21.2278 32.2558 24.1398C30.6904 27.3178 28.3268 29.7481 25.1762 31.4123C23.619 32.2349 21.9678 32.7834 20.2313 33.0644C18.5631 33.3345 16.8905 33.369 15.2084 33.1321C13.4268 32.8811 11.7431 32.3421 10.1277 31.5706C9.75584 31.3932 9.37239 31.3643 8.97455 31.4668C6.36754 32.1375 3.76025 32.8067 1.15324 33.4763C1.11061 33.4875 1.06656 33.4934 0.947968 33.5156ZM4.70333 29.7804C4.84394 29.7661 4.89985 29.7678 4.9518 29.7543C6.34721 29.3927 7.74827 29.0505 9.13437 28.6566C9.70953 28.4932 10.2059 28.539 10.7167 28.8394C11.7103 29.4239 12.7734 29.8531 13.887 30.1599C16.5067 30.8817 19.1112 30.7851 21.6886 29.9761C23.9819 29.2563 25.9527 28.0115 27.5884 26.2515C29.5319 24.1603 30.7362 21.7179 31.1467 18.892C31.5067 16.4145 31.2368 14.0038 30.2488 11.7094C28.357 7.31614 25.0517 4.53882 20.3541 3.4942C17.0167 2.75193 13.8082 3.26399 10.8327 4.91136C7.33772 6.84619 5.11811 9.80235 4.09908 13.6515C3.69164 15.1905 3.60467 16.7553 3.76082 18.3252C3.95056 20.232 4.56808 22.0135 5.52668 23.6794C5.94288 24.4026 6.03605 25.1693 5.79407 25.9812C5.42362 27.224 5.07717 28.4736 4.70333 29.7804Z" fill="#0EDB69"/>
<path d="M25.7748 21.4201C25.735 22.9852 24.6962 24.1854 23.0244 24.616C22.0855 24.858 21.1636 24.7263 20.2474 24.5107C17.8479 23.9459 15.8248 22.6938 14.007 21.0824C12.4015 19.6591 11.0931 17.992 10.0173 16.1462C9.164 14.6819 8.86046 13.1454 9.49888 11.5082C9.77417 10.8021 10.2149 10.2123 10.7768 9.71453C11.2323 9.31111 12.3868 9.21089 12.9044 9.52279C13.0303 9.59859 13.1424 9.74008 13.2009 9.87651C13.6735 10.9778 14.1428 12.0811 14.5898 13.1931C14.7736 13.6507 14.489 14.0191 14.2464 14.3669C14.035 14.6701 13.7766 14.9404 13.547 15.2318C13.2729 15.5802 13.259 15.7981 13.4886 16.1847C14.8188 18.4244 16.6787 20.0555 19.1242 21.0041C19.6022 21.1894 19.8275 21.1057 20.1508 20.704C20.5173 20.2489 20.8801 19.7904 21.2577 19.3443C21.61 18.928 21.8046 18.8912 22.2877 19.1209C23.2737 19.59 24.2591 20.0605 25.242 20.5361C25.7528 20.7831 25.7892 20.8536 25.7748 21.4201Z" fill="#0EDB69"/>
</svg>
